# xmcd
#
# Track frame offsets:
#	150
#	18290
#	29146
#	46460
#	60558
#	72602
#	82306
#	98467
#	116190
#	131404
#	142434
#	156370
#
# Disc length: 2272 seconds
#
# Revision: 1
# Processed by: cddbd v1.5.1PL2 Copyright (c) Steve Scherf et al.
# Submitted via: audiograbber 1.80
#
DISCID=b708de0c
DTITLE=Roy Rogers Jr. and the High Riders - Red River Valley
DYEAR=1900
DGENRE=
TTITLE0=Red River Valley
TTITLE1=160 Acres
TTITLE2=Call of The Canyon
TTITLE3=The Cowboy and The Senorita
TTITLE4=Happy Anniversary
TTITLE5=Sands of Texas
TTITLE6=Along The Santa Fe Trail
TTITLE7=The Arms of My Love
TTITLE8=The Last of The Silver Screen Cowboys
TTITLE9=Western Back in the Country Sound
TTITLE10=Patriotic Medley
TTITLE11=Will The Circle be Unbroken
EXTD=
EXTT0=
EXTT1=
EXTT2=
EXTT3=
EXTT4=
EXTT5=
EXTT6=
EXTT7=
EXTT8=
EXTT9=
EXTT10=
EXTT11=
PLAYORDER=
